<?xml version="1.0" encoding="utf-8" standalone="yes"?>
<!DOCTYPE svg PUBLIC "-//W3C//DTD SVG 1.1//EN" "http://www.w3.org/Graphics/SVG/1.1/DTD/svg11.dtd">
<svg style="fill:none;stroke:none;fill-rule:evenodd;clip-rule:evenodd;stroke-linecap:round;stroke-linejoin:round;stroke-miterlimit:1.5;" version="1.1" xmlns="http://www.w3.org/2000/svg" xmlns:xlink="http://www.w3.org/1999/xlink" width="662" height="475" viewBox="0 0 662 475"><style class="text-font-style fontImports" data-font-family="Roboto">@import url(https://fonts.googleapis.com/css2?family=Roboto:wght@400;700&amp;amp;display=block);</style><g id="items" style="isolation: isolate"><g id="blend" style="mix-blend-mode: normal"><g id="g-root-cp_2_g-2_94mhqr1h2je31-fill" data-item-order="-263294" transform="translate(279, 188.9959716796875)"><g id="cp_2_g-2_94mhqr1h2je31-fill-merged" stroke="none" fill="#4e88e6" fill-opacity="1"><g><path d="M11.165 117.499C15.407 100.551 30.737 87.998 49 87.998C67.263 87.998 82.594 100.551 86.835 117.499L49 10L11.165 117.499 M10 126.998C10 148.537 27.461 165.998 49 165.998C70.539 165.998 88 148.537 88 126.998C88 123.722 87.596 120.54 86.835 117.499C82.594 100.551 67.263 87.998 49 87.998C30.737 87.998 15.407 100.551 11.165 117.499C10.404 120.539 10 123.721 10 126.998"></path></g></g></g><g id="g-root-cp_2_g-2_94mhqr1h2je31-stroke" data-item-order="-263294" transform="translate(279, 188.9959716796875)"><g id="cp_2_g-2_94mhqr1h2je31-stroke" fill="none" stroke-linecap="round" stroke-linejoin="round" stroke-miterlimit="4" stroke="#2c2c2c" stroke-width="1" stroke-opacity="1"><g><path d="M 11.1651 117.4987C 15.4067 100.5507 30.7374 87.9981 49 87.998C 67.2628 87.998 82.5936 100.5509 86.8351 117.4991L 49 10L 11.1651 117.4987ZM 10 126.998C 10 148.5372 27.4609 165.998 49 165.998C 70.5391 165.998 88 148.5372 88 126.998C 88 123.7217 87.596 120.5397 86.8351 117.4991C 82.5936 100.5509 67.2628 87.998 49 87.998C 30.7374 87.9981 15.4067 100.5507 11.1651 117.4987C 10.4041 120.5393 10 123.7215 10 126.998Z"></path></g></g></g><g id="g-root-cp_1_g-1_4oszmb1h2jeva-fill" data-item-order="-263290" transform="translate(318, 91.49200439453125)"><g id="cp_1_g-1_4oszmb1h2jeva-fill-merged" stroke="none" fill="#4e88e6" fill-opacity="1"><g><path d="M84.179 20.99C71.622 33.138 68.417 52.691 77.548 68.507C86.68 84.323 105.216 91.323 122.015 86.522L10 107.506L84.179 20.99 M91.823 15.231C110.477 4.462 134.329 10.853 145.098 29.507C155.868 48.16 149.477 72.012 130.823 82.782C127.986 84.42 125.028 85.661 122.015 86.522C105.216 91.323 86.68 84.323 77.548 68.507C68.417 52.691 71.622 33.138 84.179 20.99C86.432 18.811 88.986 16.87 91.823 15.231"></path></g></g></g><g id="g-root-cp_1_g-1_4oszmb1h2jeva-stroke" data-item-order="-263290" transform="translate(318, 91.49200439453125)"><g id="cp_1_g-1_4oszmb1h2jeva-stroke" fill="none" stroke-linecap="round" stroke-linejoin="round" stroke-miterlimit="4" stroke="#2c2c2c" stroke-width="1" stroke-opacity="1"><g><path d="M 84.1791 20.9902C 71.6225 33.1375 68.417 52.6907 77.5483 68.5065C 86.6797 84.3225 105.2162 91.323 122.0145 86.5221L 10 107.5055L 84.1791 20.9902ZM 91.8233 15.2315C 110.4767 4.462 134.3287 10.8531 145.0983 29.5065C 155.8678 48.1599 149.4767 72.012 130.8233 82.7815C 127.9859 84.4197 125.0282 85.6608 122.0145 86.5221C 105.2162 91.323 86.6797 84.3225 77.5483 68.5065C 68.417 52.6907 71.6225 33.1375 84.1791 20.9902C 86.4319 18.8108 88.9857 16.8698 91.8233 15.2315Z"></path></g></g></g><g id="g-root-cp_3_g-3_1uua1cj1h2jfgv-fill" data-item-order="-263286" transform="translate(177.6719970703125, 91.49200439453125)"><g id="cp_3_g-3_1uua1cj1h2jfgv-fill-merged" stroke="none" fill="#4e88e6" fill-opacity="1"><g><path d="M76.151 20.99C88.707 33.138 91.913 52.691 82.782 68.507C73.65 84.323 55.114 91.323 38.315 86.522L150.33 107.506L76.151 20.99 M68.507 15.231C49.853 4.462 26.001 10.853 15.231 29.507C4.462 48.16 10.853 72.012 29.507 82.782C32.344 84.42 35.302 85.661 38.315 86.522C55.114 91.323 73.65 84.323 82.782 68.507C91.913 52.691 88.707 33.138 76.151 20.99C73.898 18.811 71.344 16.87 68.507 15.231"></path></g></g></g><g id="g-root-cp_3_g-3_1uua1cj1h2jfgv-stroke" data-item-order="-263286" transform="translate(177.6719970703125, 91.49200439453125)"><g id="cp_3_g-3_1uua1cj1h2jfgv-stroke" fill="none" stroke-linecap="round" stroke-linejoin="round" stroke-miterlimit="4" stroke="#2c2c2c" stroke-width="1" stroke-opacity="1"><g><path d="M 76.1507 20.9902C 88.7073 33.1375 91.9128 52.6907 82.7815 68.5065C 73.6501 84.3225 55.1136 91.323 38.3153 86.5221L 150.3298 107.5055L 76.1507 20.9902ZM 68.5065 15.2315C 49.8531 4.462 26.0011 10.8531 15.2315 29.5065C 4.462 48.1599 10.8531 72.012 29.5065 82.7815C 32.3439 84.4197 35.3016 85.6608 38.3153 86.5221C 55.1136 91.323 73.6501 84.3225 82.7815 68.5065C 91.9128 52.6907 88.7073 33.1375 76.1507 20.9902C 73.8979 18.8108 71.3441 16.8698 68.5065 15.2315Z"></path></g></g></g><g id="g-root-tx_apiinteg_1cvibtf1h2ks91-fill" data-item-order="0" transform="translate(63.6640625, 110)"><g id="tx_apiinteg_1cvibtf1h2ks91-fill-merged" stroke="none" fill="#4e88e6" fill-opacity="1"><g><text style="font: bold 12px Roboto, sans-serif; white-space: pre;" transform="translate(99.3359375, 17)" font-weight="bold" font-size="12px" font-family="Roboto, sans-serif"><tspan x="-87.34" y="7" dominant-baseline="ideographic">API Integration</tspan></text></g></g></g><g id="g-root-tx_apiinteg_1cvibtf1h2ks91-stroke" data-item-order="0" transform="translate(63.6640625, 110)"></g><g id="g-root-ic_clou_1lpwdw31h2p1xf-fill" data-item-order="0" transform="translate(198, 111)"></g><g id="g-root-ic_clou_1lpwdw31h2p1xf-stroke" data-item-order="0" transform="translate(198, 111)"><g id="ic_clou_1lpwdw31h2p1xf-stroke" fill="none" stroke-linecap="round" stroke-linejoin="round" stroke-miterlimit="4" stroke="#2c2c2c" stroke-width="1" stroke-opacity="1"><g><path d="M 39.650501 45.049L 39.650501 35.248001M 37.689999 35.248001L 41.611 35.248001M 37.689999 45.049L 41.611 45.049M 26.678501 45.049L 26.678501 41.128002M 26.678501 41.128002L 29.619999 41.128002C 31.243559 41.127777 32.559593 39.811558 32.559593 38.188C 32.559593 36.564442 31.243559 35.248222 29.619999 35.248001L 26.678501 35.248001ZM 13.7065 45.049L 14.8135 37.670502C 15.035271 36.288483 16.227798 35.272057 17.627501 35.272057C 19.027203 35.272057 20.21973 36.288483 20.4415 37.670502L 21.549999 45.049M 14.221 41.6185L 21.034 41.6185M 45.25 24.451C 45.251884 22.415213 44.424461 20.466484 42.95845 19.053957C 41.492432 17.641432 39.514309 16.886984 37.48 16.9645C 35.437531 12.627551 30.71344 10.228528 26.006676 11.13803C 21.299913 12.047533 17.809681 16.033834 17.530001 20.8195C 15.871469 20.472103 14.144699 20.890684 12.829344 21.958975C 11.513988 23.027266 10.750148 24.631477 10.75 26.326C 10.75 32.041 16.75 31.951 16.75 31.951L 38.5 31.951C 38.5 31.951 45.25 31.072001 45.25 24.451Z"></path></g></g></g><g id="g-root-ic_inte_zk1tg31h2kttz-fill" data-item-order="0" transform="translate(402, 111)"></g><g id="g-root-ic_inte_zk1tg31h2kttz-stroke" data-item-order="0" transform="translate(402, 111)"><g id="ic_inte_zk1tg31h2kttz-stroke" fill="none" stroke-linecap="round" stroke-linejoin="round" stroke-miterlimit="4" stroke="#2c2c2c" stroke-width="1" stroke-opacity="1"><g><path d="M 13.75 11.5L 42.25 11.5C 42.25 11.5 45.25 11.5 45.25 14.5L 45.25 41.5C 45.25 41.5 45.25 44.5 42.25 44.5L 13.75 44.5C 13.75 44.5 10.75 44.5 10.75 41.5L 10.75 14.5C 10.75 14.5 10.75 11.5 13.75 11.5M 10.75 19L 45.25 19M 16 14.875C 16.207108 14.875 16.375 15.042893 16.375 15.25C 16.375 15.457107 16.207108 15.625 16 15.625C 15.792893 15.625 15.625 15.457107 15.625 15.25C 15.625 15.042893 15.792893 14.875 16 14.875M 20.5 14.875C 20.707108 14.875 20.875 15.042893 20.875 15.25C 20.875 15.457107 20.707108 15.625 20.5 15.625C 20.292892 15.625 20.125 15.457107 20.125 15.25C 20.125 15.042893 20.292892 14.875 20.5 14.875M 25 14.875C 25.207108 14.875 25.375 15.042893 25.375 15.25C 25.375 15.457107 25.207108 15.625 25 15.625C 24.792892 15.625 24.625 15.457107 24.625 15.25C 24.625 15.042893 24.792892 14.875 25 14.875M 18.602501 38.125C 18.602501 38.539215 18.938286 38.875 19.352501 38.875C 19.766714 38.875 20.102501 38.539215 20.102501 38.125C 20.102501 37.710785 19.766714 37.375 19.352501 37.375C 18.938286 37.375 18.602501 37.710785 18.602501 38.125M 27.25 38.125C 27.25 38.539215 27.585787 38.875 28 38.875C 28.414213 38.875 28.75 38.539215 28.75 38.125C 28.75 37.710785 28.414213 37.375 28 37.375C 27.585787 37.375 27.25 37.710785 27.25 38.125M 35.897499 38.125C 35.897499 38.539215 36.233284 38.875 36.647499 38.875C 37.061714 38.875 37.397499 38.539215 37.397499 38.125C 37.397499 37.710785 37.061714 37.375 36.647499 37.375C 36.233284 37.375 35.897499 37.710785 35.897499 38.125M 19.352501 25.75L 16.352501 28.75L 19.352501 31.75M 36.647499 25.75L 39.647499 28.75L 36.647499 31.75"></path></g></g></g><g id="g-root-tx_frontend_1d3mhxv1h2jeo9-fill" data-item-order="0" transform="translate(483, 110)"><g id="tx_frontend_1d3mhxv1h2jeo9-fill-merged" stroke="none" fill="#4e88e6" fill-opacity="1"><g><text style="font: bold 12px Roboto, sans-serif; white-space: pre;" transform="translate(10, 17)" font-weight="bold" font-size="12px" font-family="Roboto, sans-serif"><tspan x="2" y="7" dominant-baseline="ideographic">Frontend Technologies</tspan></text></g></g></g><g id="g-root-tx_frontend_1d3mhxv1h2jeo9-stroke" data-item-order="0" transform="translate(483, 110)"></g><g id="g-root-tx_experien_13zvbkj1h2kt1q-fill" data-item-order="0" transform="translate(17.9375, 124)"><g id="tx_experien_13zvbkj1h2kt1q-fill-merged" stroke="none" fill="#4e88e6" fill-opacity="1"><g><text style="font: 10.5px Roboto, sans-serif; white-space: pre;" transform="translate(145.0625, 22)" font-size="10.5px" font-family="Roboto, sans-serif"><tspan x="-133.06" y="0" dominant-baseline="ideographic">Experienced with REST APIs </tspan><tspan x="-116.2" y="12" dominant-baseline="ideographic">and ERPNext workflows.</tspan></text></g></g></g><g id="g-root-tx_experien_13zvbkj1h2kt1q-stroke" data-item-order="0" transform="translate(17.9375, 124)"></g><g id="g-root-tx_proficie_8vvuj71h2kutm-fill" data-item-order="0" transform="translate(483, 124)"><g id="tx_proficie_8vvuj71h2kutm-fill-merged" stroke="none" fill="#4e88e6" fill-opacity="1"><g><text style="font: 10.5px Roboto, sans-serif; white-space: pre;" transform="translate(10, 22)" font-size="10.5px" font-family="Roboto, sans-serif"><tspan x="2" y="0" dominant-baseline="ideographic">Proficient in React.js, Next.js, </tspan><tspan x="2" y="12" dominant-baseline="ideographic">and Astro.</tspan></text></g></g></g><g id="g-root-tx_proficie_8vvuj71h2kutm-stroke" data-item-order="0" transform="translate(483, 124)"></g><g id="g-root-ic_2_4mb39v1h2nny9-fill" data-item-order="0" transform="translate(300, 291)"></g><g id="g-root-ic_2_4mb39v1h2nny9-stroke" data-item-order="0" transform="translate(300, 291)"><g id="ic_2_4mb39v1h2nny9-stroke" fill="none" stroke-linecap="round" stroke-linejoin="round" stroke-miterlimit="4" stroke="#2c2c2c" stroke-width="1" stroke-opacity="1"><g><path d="M 17.875 31.375L 17.875 38.125L 11.125 38.125M 38.125 24.625L 38.125 17.875L 44.875 17.875M 38.574997 17.875C 41.125 20.575001 42.625 24.025002 42.625 28.075001C 42.625 36.175003 36.025002 42.775002 27.924999 42.775002C 25.974998 42.775002 24.02503 42.324997 22.225029 41.724998M 17.424999 38.125C 14.875 35.425003 13.375 31.974998 13.375 27.924999C 13.375 19.825031 19.975 13.22503 28.075001 13.22503C 30.025002 13.22503 31.974998 13.67503 33.775002 14.27503M 27.924999 28.825001C 27.510849 28.825001 27.174999 28.4893 27.174999 28.075001C 27.174999 27.660851 27.510849 27.325001 27.924999 27.325001M 27.92485 28.825001C 28.339001 28.825001 28.67485 28.4893 28.67485 28.075001C 28.67485 27.660851 28.339001 27.325001 27.92485 27.325001M 10 10M 29.275002 21.775074L 29.724998 23.275074C 29.875 23.875074 30.474998 24.175076 30.924999 24.025074L 32.424999 23.725075C 33.775002 23.425076 34.675003 25.075001 33.775002 26.125L 32.724998 27.325001C 32.275002 27.775002 32.275002 28.375 32.724998 28.825001L 33.775002 30.025002C 34.675003 31.075001 33.775002 32.724998 32.424999 32.424999L 30.924999 32.125C 30.325001 31.974998 29.875 32.275002 29.724998 32.875L 29.275002 34.375C 28.825001 35.724998 27.025002 35.724998 26.575001 34.375L 26.125 32.875C 25.974998 32.275002 25.375 31.974998 24.924986 32.125L 23.424986 32.424999C 22.074986 32.724998 21.174984 31.075001 22.074986 30.025002L 23.124985 28.825001C 23.574986 28.375 23.574986 27.775002 23.124985 27.325001L 22.074986 26.125C 21.174984 25.075001 22.074986 23.425076 23.424986 23.725075L 24.924986 24.025074C 25.525002 24.175076 25.974998 23.875074 26.125 23.275074L 26.575001 21.775074C 27.025002 20.425076 28.974998 20.425076 29.275002 21.775074Z"></path></g></g></g><g id="g-root-tx_stateman_1q6cd3n1h2kttv-fill" data-item-order="0" transform="translate(262.984375, 369)"><g id="tx_stateman_1q6cd3n1h2kttv-fill-merged" stroke="none" fill="#4e88e6" fill-opacity="1"><g><text style="font: bold 12px Roboto, sans-serif; white-space: pre;" transform="translate(65.015625, 17)" font-weight="bold" font-size="12px" font-family="Roboto, sans-serif"><tspan x="-53.02" y="7" dominant-baseline="ideographic">State Management</tspan></text></g></g></g><g id="g-root-tx_stateman_1q6cd3n1h2kttv-stroke" data-item-order="0" transform="translate(262.984375, 369)"></g><g id="g-root-tx_skilledi_1hapcur1h2kumk-fill" data-item-order="0" transform="translate(251.06640625, 383)"><g id="tx_skilledi_1hapcur1h2kumk-fill-merged" stroke="none" fill="#4e88e6" fill-opacity="1"><g><text style="font: 10.5px Roboto, sans-serif; white-space: pre;" transform="translate(76.93359375, 22)" font-size="10.5px" font-family="Roboto, sans-serif"><tspan x="-64.93" y="0" dominant-baseline="ideographic">Skilled in Redux Toolkit and </tspan><tspan x="-30.66" y="12" dominant-baseline="ideographic">React Query.</tspan></text></g></g></g><g id="g-root-tx_skilledi_1hapcur1h2kumk-stroke" data-item-order="0" transform="translate(251.06640625, 383)"></g></g></g><path id="wmetpb71giiu4q" d="M65.283 12.757a.35.35 0 0 0 .584.157l5.203-5.141-6.183 3.523.396 1.461zm-2.216-11.7a.35.35 0 0 0-.522.305v3.111l3.276-1.868-2.754-1.548zm3.728 2.105l-4.25 2.421v2.445l6.391-3.644-2.141-1.222zm4.708 3.303a.35.35 0 0 0 0-.609l-1.592-.9-7.365 4.199v1.782a.35.35 0 0 0 .523.305l8.435-4.777z M44.542 2.513c0-.433.355-.783.792-.783s.792.35.792.783-.355.783-.792.783-.792-.35-.792-.783zm59.171 0c0-.433.355-.783.792-.783s.792.35.792.783-.355.783-.792.783-.792-.35-.792-.783zm-85.951 7.636h-1.27v-.487c-.276.201-.864.609-1.881.609-1.202 0-2.274-.794-2.137-2.078.118-1.106 1.153-1.584 1.848-1.727l2.17-.345c0-.539-.29-.956-1.064-1.006s-1.21.305-1.571 1.017l-1.124-.605c1.218-2.631 5.029-1.764 5.029.414v4.207zm-1.27-2.86c.006.396-.062 1.112-.819 1.59-.587.37-1.841.299-1.903-.395-.049-.555.461-.791.906-.898l1.816-.297zm72.662 2.86h-1.27v-.487c-.276.201-.864.609-1.881.609-1.202 0-2.274-.794-2.137-2.078.118-1.106 1.153-1.584 1.848-1.727l2.17-.345c0-.539-.29-.956-1.064-1.006s-1.21.305-1.571 1.017l-1.124-.605c1.218-2.631 5.029-1.764 5.029.414v4.207zm-1.27-2.86c.006.396-.062 1.112-.82 1.59-.587.37-1.841.299-1.903-.395-.049-.555.461-.791.906-.898l1.816-.297zM99.096 10.149H97.85v-8.45h1.246v4.895l2.68-2.559h1.738l-2.633 2.535 2.715 3.578h-1.556l-2.077-2.707-.867.844v1.863zm6.053-6.114h-1.255v6.113h1.255V4.035zm-59.2 0h-1.255v6.113h1.255V4.035zm5.584 6.113V1.697h1.255v2.695c.361-.346 1-.485 1.47-.485 1.452 0 2.477 1.082 2.457 2.448v3.792h-1.27v-3.68c0-.408-.214-1.339-1.315-1.339-.968 0-1.342.756-1.342 1.339v3.681h-1.255zm-4.76-4.894V4.039h.621a.45.45 0 0 0 .45-.45v-.855h1.251v1.305h1.309v1.215h-1.309v3.109c0 .293.105.664.648.664.365 0 .531-.035.736-.07v1.137s-.361.113-.857.113c-1.398 0-1.777-1.051-1.777-1.788V5.254h-1.071zM36.528 4.039h-1.394l2.191 6.106h1.125l1.234-3.918 1.238 3.918h1.129l2.188-6.106h-1.383l-1.359 3.93-1.256-3.93h-1.124l-1.242 3.957-1.348-3.957zM26.212 7.141c-.02 1.566 1.187 3.129 3.223 3.129 1.566 0 2.383-.918 2.734-1.719L31.172 8c-.315.399-.801 1.094-1.738 1.094-1.145 0-1.825-.781-1.891-1.52h4.625c.074-.284.148-.995-.03-1.559-.336-1.064-1.221-2.102-2.839-2.102s-3.088 1.152-3.088 3.227zm1.363-.75h3.348c-.055-.43-.566-1.301-1.623-1.301a1.79 1.79 0 0 0-1.725 1.301zm-8.758.75c.038 1.758 1.277 3.133 3.145 3.133 1.074 0 1.723-.477 1.961-.672v.547h1.242V1.703h-1.258v2.888c-.414-.36-1.062-.68-1.93-.68-1.91 0-3.198 1.473-3.16 3.23zm1.309-.08c0 1.119.723 1.978 1.836 1.978a1.88 1.88 0 0 0 1.94-1.904c0-1.371-1.011-1.99-1.972-1.99s-1.805.798-1.805 1.916zm76.683-.028C96.771 5.275 95.532 3.9 93.664 3.9c-1.074 0-1.723.477-1.961.672v-.547h-1.242v8.22h1.258V9.583c.414.36 1.063.68 1.93.68 1.91 0 3.198-1.473 3.16-3.23zm-1.309.08c0-1.119-.723-1.978-1.836-1.978a1.88 1.88 0 0 0-1.94 1.904c0 1.371 1.011 1.99 1.972 1.99S95.5 8.231 95.5 7.113zM106.441 10.173V4.036h1.254v.382c.361-.346 1-.485 1.47-.485 1.452 0 2.477 1.082 2.457 2.448v3.792h-1.27V6.492c0-.408-.214-1.339-1.315-1.339-.969 0-1.342.756-1.342 1.339v3.681h-1.254zm-30.383-.021V1.824h1.084l4.215 5.777V1.824h1.32v8.328h-1.094l-4.207-5.796v5.796h-1.319zM5.24 10.149H4V2.377h1.014l2.664 3.597 2.654-3.592h1.03v7.766h-1.256V4.762L7.678 8.068 5.24 4.742v5.407z" transform="translate(526, 441)" fill="#ababab88" stroke="none"></path></svg>